<svg width="36" height="20" viewBox="0 0 36 20" fill="none" xmlns="http://www.w3.org/2000/svg">
<path d="M8.30549 11.0856H28.0602C28.6748 11.0856 29.1577 10.6027 29.1577 9.98811C29.1577 9.37352 28.6748 8.89062 28.0602 8.89062H8.30549C7.6909 8.89062 7.20801 9.37352 7.20801 9.98811C7.20801 10.6027 7.6909 11.0856 8.30549 11.0856Z" fill="#F8E7F3"/>
<path d="M13.7927 18.7677C13.9366 18.7695 14.0793 18.7411 14.2116 18.6844C14.3439 18.6277 14.4629 18.5439 14.5609 18.4385C14.9999 17.9995 14.9999 17.319 14.5609 16.88L7.64673 9.96589L14.5609 3.05174C14.9999 2.61274 14.9999 1.9323 14.5609 1.49331C14.1219 1.05431 13.4415 1.05431 13.0025 1.49331L5.32006 9.1757C4.88107 9.6147 4.88107 10.2951 5.32006 10.7341L13.0025 18.4165C13.222 18.636 13.5073 18.7458 13.7707 18.7458L13.7927 18.7677Z" fill="#F8E7F3"/>
</svg>
