<svg width="36" height="20" viewBox="0 0 36 20" fill="none" xmlns="http://www.w3.org/2000/svg">
<path d="M27.6945 11.0856H7.93977C7.32518 11.0856 6.84229 10.6027 6.84229 9.98811C6.84229 9.37352 7.32518 8.89062 7.93977 8.89062H27.6945C28.3091 8.89062 28.792 9.37352 28.792 9.98811C28.792 10.6027 28.3091 11.0856 27.6945 11.0856Z" fill="#F8E7F3"/>
<path d="M22.2073 18.7677C22.0634 18.7695 21.9207 18.7411 21.7884 18.6844C21.6561 18.6277 21.5371 18.5439 21.4391 18.4385C21.0001 17.9995 21.0001 17.319 21.4391 16.88L28.3533 9.96589L21.4391 3.05174C21.0001 2.61274 21.0001 1.9323 21.4391 1.49331C21.8781 1.05431 22.5585 1.05431 22.9975 1.49331L30.6799 9.1757C31.1189 9.6147 31.1189 10.2951 30.6799 10.7341L22.9975 18.4165C22.778 18.636 22.4927 18.7458 22.2293 18.7458L22.2073 18.7677Z" fill="#F8E7F3"/>
</svg>
