<svg width="27" height="27" viewBox="0 0 27 27" fill="none" xmlns="http://www.w3.org/2000/svg">
<path fill-rule="evenodd" clip-rule="evenodd" d="M24.75 2.25C25.0484 2.25 25.3345 2.36853 25.5455 2.5795C25.7565 2.79048 25.875 3.07663 25.875 3.375V19.125C25.875 20.6483 24.8659 21.9352 23.4799 22.356C23.2735 23.0366 22.8575 23.6347 22.2911 24.0648C21.7246 24.4949 21.0368 24.7351 20.3258 24.751C19.6148 24.767 18.9169 24.5579 18.3317 24.1537C17.7465 23.7494 17.304 23.1707 17.0674 22.5H9.93263C9.69595 23.1707 9.25346 23.7494 8.6683 24.1537C8.08315 24.5579 7.38524 24.767 6.67421 24.751C5.96318 24.7351 5.27536 24.4949 4.70894 24.0648C4.14252 23.6347 3.72645 23.0366 3.52012 22.356C2.82706 22.1457 2.22002 21.7181 1.78871 21.1362C1.3574 20.5544 1.1247 19.8493 1.125 19.125V14.625C1.125 13.8863 1.27049 13.1549 1.55318 12.4724C1.83586 11.7899 2.25019 11.1699 2.77252 10.6475C3.29485 10.1252 3.91495 9.71086 4.5974 9.42818C5.27986 9.14549 6.01131 9 6.75 9H11.25V3.375C11.25 3.07663 11.3685 2.79048 11.5795 2.5795C11.7905 2.36853 12.0766 2.25 12.375 2.25H24.75ZM9.93263 20.25H11.25V11.25H6.75C5.85489 11.25 4.99645 11.6056 4.36351 12.2385C3.73058 12.8714 3.375 13.7299 3.375 14.625V19.125C3.37506 19.4233 3.49363 19.7094 3.70462 19.9204C3.99223 19.3179 4.45208 18.8142 5.02599 18.4731C5.59989 18.132 6.26208 17.9687 6.92877 18.004C7.59547 18.0393 8.23672 18.2715 8.77142 18.6713C9.30611 19.0711 9.71022 19.6205 9.93263 20.25ZM21.0454 20.5796C20.9416 20.4722 20.8175 20.3865 20.6802 20.3275C20.543 20.2686 20.3953 20.2375 20.246 20.2362C20.0966 20.2349 19.9484 20.2634 19.8102 20.32C19.6719 20.3765 19.5463 20.4601 19.4407 20.5657C19.3351 20.6713 19.2515 20.7969 19.195 20.9352C19.1384 21.0734 19.1099 21.2216 19.1112 21.371C19.1125 21.5203 19.1436 21.6679 19.2025 21.8052C19.2615 21.9425 19.3472 22.0666 19.4546 22.1704C19.6668 22.3753 19.951 22.4887 20.246 22.4861C20.5409 22.4836 20.8231 22.3653 21.0317 22.1567C21.2403 21.9481 21.3586 21.6659 21.3611 21.371C21.3637 21.076 21.2503 20.7918 21.0454 20.5796ZM7.875 21.375C7.875 21.0766 7.75647 20.7905 7.5455 20.5795C7.33452 20.3685 7.04837 20.25 6.75 20.25C6.45163 20.25 6.16548 20.3685 5.9545 20.5795C5.74353 20.7905 5.625 21.0766 5.625 21.375C5.625 21.6734 5.74353 21.9595 5.9545 22.1705C6.16548 22.3815 6.45163 22.5 6.75 22.5C7.04837 22.5 7.33452 22.3815 7.5455 22.1705C7.75647 21.9595 7.875 21.6734 7.875 21.375Z" fill="#D1009D"/>
</svg>
