<svg width="20" height="20" viewBox="0 0 20 20" fill="none" xmlns="http://www.w3.org/2000/svg">
<path d="M15.3867 14.3863L14.3975 15.3646C13.6686 16.0802 12.7225 17.0002 11.5592 18.1246C11.2095 18.4627 10.7422 18.6517 10.2558 18.6517C9.76948 18.6517 9.30215 18.4627 8.9525 18.1246L6.04417 15.2946C5.6775 14.9357 5.37111 14.633 5.125 14.3863C4.11031 13.3715 3.41931 12.0787 3.13938 10.6712C2.85946 9.2637 3.00318 7.80483 3.55237 6.47903C4.10156 5.15323 5.03156 4.02005 6.22477 3.22279C7.41797 2.42553 8.82079 2 10.2558 2C11.6909 2 13.0937 2.42553 14.2869 3.22279C15.4801 4.02005 16.4101 5.15323 16.9593 6.47903C17.5085 7.80483 17.6522 9.2637 17.3723 10.6712C17.0924 12.0787 16.4014 13.3715 15.3867 14.3863ZM12.34 9.48463C12.34 8.9321 12.1205 8.40219 11.7298 8.01149C11.3391 7.62079 10.8092 7.4013 10.2567 7.4013C9.70414 7.4013 9.17423 7.62079 8.78353 8.01149C8.39283 8.40219 8.17334 8.9321 8.17334 9.48463C8.17334 10.0372 8.39283 10.5671 8.78353 10.9578C9.17423 11.3485 9.70414 11.568 10.2567 11.568C10.8092 11.568 11.3391 11.3485 11.7298 10.9578C12.1205 10.5671 12.34 10.0372 12.34 9.48463Z" fill="#D1009D"/>
</svg>
