<svg width="20" height="20" viewBox="0 0 20 20" fill="none" xmlns="http://www.w3.org/2000/svg">
<path d="M10.1998 3.27997C13.7298 3.27997 16.6298 5.88997 17.1198 9.27997H19.1998L15.6998 13.28L12.1998 9.27997H14.5198C14.2959 8.30116 13.7469 7.42714 12.9623 6.80056C12.1777 6.17397 11.2039 5.83183 10.1998 5.82997C8.7498 5.82997 7.4698 6.53997 6.6598 7.60997L4.9498 5.65997C5.60453 4.91178 6.41174 4.31231 7.31724 3.90182C8.22275 3.49132 9.2056 3.27929 10.1998 3.27997ZM9.7998 16.72C6.2798 16.72 3.3698 14.11 2.8798 10.72H0.799805L4.2998 6.71997C5.4698 8.04997 6.6298 9.38997 7.7998 10.72H5.4798C5.70369 11.6988 6.25273 12.5728 7.03732 13.1994C7.82191 13.826 8.79572 14.1681 9.7998 14.17C11.2498 14.17 12.5298 13.46 13.3398 12.39L15.0498 14.34C14.3959 15.0892 13.5889 15.6893 12.6832 16.0999C11.7775 16.5105 10.7942 16.7219 9.7998 16.72Z" fill="white"/>
</svg>
